<?xml version="1.0" encoding="UTF-8"?>
<svg id="Layer_1" xmlns="http://www.w3.org/2000/svg" version="1.1" viewBox="0 0 850 150">
  <!-- Generator: Adobe Illustrator 29.2.1, SVG Export Plug-In . SVG Version: 2.1.0 Build 116)  -->
  <defs>
    <style>
      .st0 {
        fill: #fff;
      }
    </style>
  </defs>
  <path class="st0" d="M155.5,104.2H55l-18.1,22.5H6L92.1,23.3h29.4l86.2,103.5h-34.3l-17.9-22.5ZM143.4,89l-37.9-47.5h-.3l-38,47.5h76.3Z"/>
  <path class="st0" d="M241.5,23.3h25.5v103.5h-25.5V23.3Z"/>
  <path class="st0" d="M309,23.3h92.8c43.9,0,55,12.9,55,27s-6.3,19.3-24.5,22.2v.2c23.3,2.2,32.1,12.3,32.1,23.7,0,18.7-15.7,30.3-58,30.3h-97.3V23.3ZM405.7,66.4c20.6,0,28.5-4.6,28.5-12.7s-8.5-12.4-32.9-12.4h-66.8v25.2h71.2ZM403.6,108.8c25.8,0,36-5.3,36-14.5s-9-12.9-32.7-12.9h-72.5v27.4h69.2Z"/>
  <path class="st0" d="M552.7,42.5h-64.3v-19.2h154.2v19.2h-64.5v84.3h-25.5V42.5Z"/>
  <path class="st0" d="M660.9,75.2c0-30.3,29.9-53.9,87.6-53.9s81.1,24.4,81.3,41.5c0,.3,0,1.4-.2,2.4h-23v-.6c0-10.2-15.1-24.1-57.1-24.1s-62.9,14.6-62.9,34.7,16.5,34.4,63.5,34.4,57.5-11.3,57.5-23.7v-.9h23c.2.9.2,2,.2,2.2,0,19.7-22.5,41.7-81.4,41.7s-88.5-26.7-88.5-53.6Z"/>
</svg>