<svg id="bitcoin-face-for-bc1qeuzeywrnd545hmy2mxkxjp29aqeztgzflv0xu4" width="100%" height="100%" viewBox="0 0 1025 1025" xmlns="http://www.w3.org/2000/svg" xmlns:xlink="http://www.w3.org/1999/xlink">
<svg xmlns="http://www.w3.org/2000/svg" viewBox="0 0 1000 1000"><g id="background-2"><rect id="Background-2" width="1025" height="1025" style="fill:#3d4b8a" /></g></svg>
<svg xmlns="http://www.w3.org/2000/svg" viewBox="0 0 1000 1000"><g id="Body-2"><polyline points="0 466.21 187.39 280.34 187.39 552.6" style="fill:#545290" /><polyline points="1010 464.81 824.02 280 824.02 542.9" style="fill:#545290" /><rect y="464.72" width="1009.59" height="535.86" style="fill:#545290" /><rect x="186.39" y="280.34" width="637.63" height="202.05" style="fill:#545290" /></g></svg>
<svg xmlns="http://www.w3.org/2000/svg" viewBox="0 0 1000 1000"><g id="head-11"><rect x="161.72" y="454.29" width="349.08" height="234.25" style="fill:#dbb9be" /><polyline points="530.98 682.74 114.17 682.74 276.26 844.83 530.98 844.83 530.98 682.74" style="fill:#d7bbbd" /><path d="M162.39,453.84H509.73V114.22h-9.36A153.88,153.88,0,0,0,378.62,174Z" transform="translate(0.34)" style="fill:#efe1da" /><rect x="492.49" y="145.09" width="4.29" height="262.44" style="fill:#dbb9be" /><rect x="418.82" y="229.92" width="4.29" height="177.7" transform="translate(-106.12 293.4) rotate(-34.38)" style="fill:#dbb9be" /><circle cx="440.6" cy="222.28" r="15.44" style="fill:#fbf5de" /><circle cx="409.72" cy="191.41" r="7.72" style="fill:#fbf5de" /><circle cx="425.16" cy="253.15" r="7.72" style="fill:#fbf5de" /><circle cx="363.41" cy="284.03" r="7.72" style="fill:#fbf5de" /><rect x="506.09" y="453.42" width="349.08" height="234.25" transform="translate(1361.6 1141.08) rotate(-180)" style="fill:#dbb9be" /><polyline points="486.25 682.08 903.06 682.08 740.97 844.17 486.25 844.17 486.25 682.08" style="fill:#d7bbbd" /><path d="M854.17,453.18H506.82V113.56h9.36a153.88,153.88,0,0,1,121.75,59.78Z" transform="translate(0.34)" style="fill:#efe1da" /><rect x="520.46" y="144.43" width="4.29" height="262.44" style="fill:#dbb9be" /><rect x="506.74" y="315.96" width="177.7" height="4.29" transform="translate(-2.93 630.02) rotate(-55.62)" style="fill:#dbb9be" /><circle cx="576.63" cy="221.62" r="15.44" style="fill:#fbf5de" /><circle cx="607.51" cy="190.75" r="7.72" style="fill:#fbf5de" /><circle cx="592.07" cy="252.5" r="7.72" style="fill:#fbf5de" /><circle cx="653.82" cy="283.37" r="7.72" style="fill:#fbf5de" /></g></svg>
<svg xmlns="http://www.w3.org/2000/svg" viewBox="0 0 1000 1000"><g id="ears-4"><path d="M366.21,205.76l-126-84-33.41,41.76a74.23,74.23,0,0,0,16.79,108.13l58.61,39.07" transform="translate(-1.66 0)" style="fill:#883a62" /><path d="M646.07,205.43l126-84,33.41,41.77a74.21,74.21,0,0,1-16.78,108.12l-58.62,39.08" transform="translate(-1.66 0)" style="fill:#4d2f47" /></g></svg>
<svg xmlns="http://www.w3.org/2000/svg" viewBox="0 0 1000 1000"><g id="mouth-6"><rect x="317.45" y="553.94" width="214.26" height="100.83" style="fill:#fa8cb2" /><rect x="342.66" y="566.54" width="189.06" height="75.62" style="fill:#efe1da" /><rect x="367.87" y="566.54" width="12.6" height="75.62" style="fill:#001a1b" /><rect x="405.68" y="566.54" width="12.6" height="75.62" style="fill:#001a1b" /><rect x="443.52" y="566.5" width="12.6" height="75.62" style="fill:#001a1b" /><rect x="481.33" y="566.5" width="12.6" height="75.62" style="fill:#001a1b" /><rect x="501.72" y="549.98" width="195.45" height="100.83" transform="translate(1197.35 1204.78) rotate(-180)" style="fill:#f46461" /><rect x="495.41" y="562.58" width="176.56" height="75.62" transform="translate(1165.84 1204.78) rotate(-180)" style="fill:#efe1da" /><rect x="634.16" y="562.58" width="12.6" height="75.62" transform="translate(1279.37 1204.78) rotate(-180)" style="fill:#001a1b" /><rect x="596.35" y="562.58" width="12.6" height="75.62" transform="translate(1203.75 1204.78) rotate(-180)" style="fill:#001a1b" /><rect x="558.5" y="562.54" width="12.6" height="75.62" transform="translate(1128.06 1204.7) rotate(-180)" style="fill:#001a1b" /><rect x="520.69" y="562.54" width="12.6" height="75.62" transform="translate(1052.44 1204.7) rotate(-180)" style="fill:#001a1b" /><rect x="329.85" y="560.24" width="353.27" height="44.16" style="fill:#883a62;opacity:0.30000000000000004;mix-blend-mode:multiply" /></g></svg>
<svg xmlns="http://www.w3.org/2000/svg" viewBox="0 0 1000 1000"><g id="nose-2"><circle cx="478.44" cy="516.44" r="9.88" style="fill:#303636" /><path d="M503,519.73h-3.65a24.52,24.52,0,0,0-49,0H446.7a28.17,28.17,0,0,1,56.34,0Z" transform="translate(0.28 0)" style="fill:#efe1da" /><circle cx="535.24" cy="515.88" r="9.88" style="fill:#303636" /><path d="M510.08,519.17h3.66a24.52,24.52,0,0,1,49,0h3.66a28.18,28.18,0,0,0-56.35,0Z" transform="translate(0.28 0)" style="fill:#efe1da" /></g></svg>
<svg xmlns="http://www.w3.org/2000/svg" viewBox="0 0 1000 1000"><g id="eyes-6"><rect x="418.69" y="406.92" width="87.66" height="19.48" style="fill:#fa8cb2" /><circle cx="340.77" cy="416.66" r="87.66" style="fill:#4d2f47" /><circle cx="340.77" cy="416.66" r="68.18" style="fill:#ed7e29" /><rect x="262.85" y="406.92" width="155.84" height="19.48" style="fill:#001a1b" /><rect x="507.06" y="406.95" width="87.66" height="19.48" transform="translate(1101.12 833.38) rotate(-180)" style="fill:#fa8cb2" /><circle cx="671.98" cy="416.69" r="87.66" style="fill:#001a1b" /><circle cx="671.98" cy="416.69" r="68.18" style="fill:#ed7e29" /><rect x="594.72" y="406.95" width="155.84" height="19.48" transform="translate(1344.62 833.38) rotate(-180)" style="fill:#001a1b" /></g></svg>
</svg>