<svg id="bitcoin-face-for-bc1qghpu0y78zvuw460safudkllqvsuzzwgg8u03jg" width="100%" height="100%" viewBox="0 0 1025 1025" xmlns="http://www.w3.org/2000/svg" xmlns:xlink="http://www.w3.org/1999/xlink">
<svg xmlns="http://www.w3.org/2000/svg" viewBox="0 0 1000 1000"><g id="background-5"><rect id="Background-5" width="1025" height="1025" style="fill:#f8f3c1" /></g></svg>
<svg xmlns="http://www.w3.org/2000/svg" viewBox="0 0 1000 1000"><g id="Body-4"><path d="M504,494.22h0A412.66,412.66,0,0,1,916.61,906.88V1003a0,0,0,0,1,0,0H91.3a0,0,0,0,1,0,0V906.88A412.66,412.66,0,0,1,504,494.22Z" style="fill:#6c1908" /></g></svg>
<svg xmlns="http://www.w3.org/2000/svg" viewBox="0 0 1000 1000"><g id="head-2"><path d="M507.72,158H428.61A204.76,204.76,0,0,0,247,268.29L100.88,549.2,326.59,810.56a239.35,239.35,0,0,0,181.13,82.9h0Z" transform="translate(0.28 0)" style="fill:#8e97c4" /><path d="M507.72,158h79.11A204.76,204.76,0,0,1,768.5,268.29L914.57,549.2,688.86,810.56a239.36,239.36,0,0,1-181.14,82.9h0Z" transform="translate(0.28 0)" style="fill:#4f4f8e" /><rect x="171" y="655.35" width="236.25" height="3.26" transform="translate(-379.6 396.87) rotate(-45)" style="fill:#b2bcdf" /><rect x="229.15" y="641.52" width="190.99" height="3.26" transform="translate(-359.41 417.93) rotate(-45)" style="fill:#b2bcdf" /><rect x="269.15" y="646.94" width="132.7" height="3.26" transform="translate(-360.07 427.19) rotate(-45)" style="fill:#b2bcdf" /><rect x="217.53" y="687.35" width="259.26" height="3.26" transform="translate(-385.23 447.27) rotate(-45)" style="fill:#b2bcdf" /><rect x="253.09" y="730.47" width="175.65" height="3.26" transform="translate(-417.55 455.49) rotate(-45)" style="fill:#b2bcdf" /><rect x="277.52" y="741.32" width="194.06" height="3.26" transform="translate(-415.37 482.45) rotate(-45)" style="fill:#b2bcdf" /><rect x="84.57" y="546.06" width="252.35" height="3.26" transform="translate(-325.28 309.44) rotate(-45)" style="fill:#b2bcdf" /><path d="M212.74,517.64l-2.35-2.27c6.4-6.62,62.69-64.8,67.15-67l1.47,2.91C275.72,453.05,237.57,491.94,212.74,517.64Z" transform="translate(0.28 0)" style="fill:#b2bcdf" /><rect x="213.42" y="449.52" width="83.61" height="3.26" transform="translate(-243.98 312.61) rotate(-45)" style="fill:#b2bcdf" /><rect x="122.25" y="452.23" width="180.25" height="3.26" transform="translate(-258.45 283.11) rotate(-45)" style="fill:#b2bcdf" /><rect x="210.94" y="396.64" width="59.83" height="3.26" transform="translate(-210.8 286.96) rotate(-45)" style="fill:#b2bcdf" /><rect x="723.29" y="538.59" width="3.26" height="236.25" transform="translate(-251.77 704.94) rotate(-45)" style="fill:#7272ae" /><rect x="687.76" y="547.39" width="3.26" height="190.99" transform="translate(-252.39 675.77) rotate(-45)" style="fill:#7272ae" /><rect x="676.91" y="581.96" width="3.26" height="132.7" transform="translate(-259.4 669.69) rotate(-45)" style="fill:#7272ae" /><rect x="665.25" y="559.08" width="3.26" height="259.26" transform="translate(-291.39 673.28) rotate(-45)" style="fill:#7272ae" /><rect x="671.49" y="644" width="3.26" height="175.65" transform="translate(-320.05 690.32) rotate(-45)" style="fill:#7272ae" /><rect x="637.86" y="645.65" width="3.26" height="194.06" transform="translate(-337.57 669.72) rotate(-45)" style="fill:#7272ae" /><rect x="801.66" y="421.25" width="3.26" height="252.35" transform="translate(-151.53 728.35) rotate(-45)" style="fill:#7272ae" /><path d="M801.3,517.37c-24.83-25.7-63-64.59-66.27-66.39l1.46-2.91c4.46,2.23,60.75,60.41,67.16,67Z" transform="translate(0.28 0)" style="fill:#7272ae" /><rect x="757.18" y="409.08" width="3.26" height="83.61" transform="translate(-96.29 668.63) rotate(-45)" style="fill:#7272ae" /><rect x="800.03" y="363.47" width="3.26" height="180.25" transform="translate(-85.66 699.72) rotate(-45)" style="fill:#7272ae" /><rect x="771.56" y="368.09" width="3.26" height="59.83" transform="translate(-54.69 663.3) rotate(-45)" style="fill:#7272ae" /></g></svg>
<svg xmlns="http://www.w3.org/2000/svg" viewBox="0 0 1000 1000"><g id="ears-6"><path d="M305.64,230v64A22.69,22.69,0,0,1,283,316.61H262.15a97.69,97.69,0,0,0-37.57,7.51h0a87.1,87.1,0,0,1-112.14-43L108,271.88a86.58,86.58,0,0,1,44.06-116.81h0A86.61,86.61,0,0,1,208.5,151l89.26,23.81H187.46a39.39,39.39,0,0,0-39.39,39.39h0a39.4,39.4,0,0,0,39.39,39.39h4.85A39.42,39.42,0,0,0,212.58,248l40.76-24.46a42.8,42.8,0,0,1,52.3,6.44Z" transform="translate(0.34)" style="fill:#542f5f" /><path d="M722.64,230.16v64a22.68,22.68,0,0,0,22.68,22.68h20.81a97.64,97.64,0,0,1,37.56,7.51h0a87.11,87.11,0,0,0,112.15-42.95l4.42-9.29a86.58,86.58,0,0,0-44.07-116.81h0a86.58,86.58,0,0,0-56.41-4.07L730.51,175h110.3A39.39,39.39,0,0,1,880.2,214.4h0a39.38,39.38,0,0,1-39.39,39.39H836a39.42,39.42,0,0,1-20.27-5.61l-40.77-24.46a42.8,42.8,0,0,0-52.29,6.44Z" transform="translate(0.34)" style="fill:#111c0d" /></g></svg>
<svg xmlns="http://www.w3.org/2000/svg" viewBox="0 0 1000 1000"><g id="mouth-9"><rect x="408.97" y="594.72" width="206.84" height="137.97" style="fill:#172027" /><path d="M433.62,581.13V676l-17.73-20.73A108.14,108.14,0,0,1,390,585v-4.23Z" transform="translate(9.03 13)" style="fill:#efe1da" /><path d="M569.67,581.41v94.82L587.4,655.5a108.12,108.12,0,0,0,25.94-70.28V581Z" transform="translate(9.03 13)" style="fill:#dbb9be" /><polyline points="623.75 703.48 623.75 811.5 590.32 746.69 590.32 941.14 534.6 833.11 512.31 962.74 512.31 725.08" style="fill:#4d2f47" /><polyline points="401.6 702.76 401.6 810.79 435.03 745.97 435.03 940.42 490.75 832.4 513.04 962.03 513.04 724.37" style="fill:#883a62" /></g></svg>
<svg xmlns="http://www.w3.org/2000/svg" viewBox="0 0 1000 1000"><g id="nose-5"><polyline points="464.53 419.86 439.16 525.62 506.81 525.62 506.81 404.19" style="fill:#f9c1c0" /><polygon points="439.16 525.62 506.81 525.62 506.81 541.29 439.16 525.62" style="fill:#f9c1c0" /><path d="M438.82,525.62h0c11,12.76,30.12,23.67,54.81,31.29l12.84,4V541.29Z" transform="translate(0.34)" style="fill:#883a62" /><polyline points="548.99 419.67 574.36 525.44 506.7 525.44 506.7 404" style="fill:#f489ae" /><polygon points="574.36 525.44 506.7 525.44 506.7 541.11 574.36 525.44" style="fill:#f489ae" /><path d="M574,525.44h0c-11,12.75-30.13,23.66-54.81,31.28l-12.85,4V541.11Z" transform="translate(0.34)" style="fill:#4d2f47" /></g></svg>
<svg xmlns="http://www.w3.org/2000/svg" viewBox="0 0 1000 1000"><g id="eyes-5"><path d="M583.58,433.06,601,409.88a95.71,95.71,0,0,1,76.57-38.29h0a95.71,95.71,0,0,1,53.09,16.08l22,14.66Z" transform="translate(9.03 13)" style="fill:#dbb9be" /><path d="M751.83,401.75l-17.39,23.18a95.68,95.68,0,0,1-76.57,38.29h0a95.63,95.63,0,0,1-53.09-16.08l-22-14.66Z" transform="translate(9.03 13)" style="fill:#efe1da" /><circle cx="670.3" cy="431.55" r="46.1" style="fill:#4f4f8e" /><circle cx="670.3" cy="431.55" r="30.74" style="fill:#001a1b" /><path d="M568.21,356.23H798.72L768,310.12H685.71A146.8,146.8,0,0,0,610.18,331Z" transform="translate(9.03 13)" style="fill:#4a2955" /><rect x="678.73" y="410.13" width="21.43" height="21.43" style="fill:#efe1da" /><path d="M433.25,432.12l-17.39-23.18a95.72,95.72,0,0,0-76.57-38.29h0a95.63,95.63,0,0,0-53.09,16.08l-22,14.66Z" transform="translate(9.03 13)" style="fill:#dbb9be" /><path d="M265,400.81,282.38,424A95.74,95.74,0,0,0,359,462.28h0a95.73,95.73,0,0,0,53.09-16.08l22-14.66Z" transform="translate(9.03 13)" style="fill:#efe1da" /><circle cx="364.59" cy="430.61" r="46.1" style="fill:#4f4f8e" /><circle cx="364.59" cy="430.61" r="30.74" style="fill:#001a1b" /><path d="M448.62,355.28H218.1l30.74-46.1h82.28a146.83,146.83,0,0,1,75.53,20.92Z" transform="translate(9.03 13)" style="fill:#4a2955" /><rect x="325.7" y="396.18" width="21.43" height="21.43" transform="translate(681.86 826.79) rotate(-180)" style="fill:#efe1da" /></g></svg>
</svg>