<svg id="bitcoin-face-for-bc1qhwpd93rajpa8ut3aax3phprxglen9g486xvr7h" width="100%" height="100%" viewBox="0 0 1025 1025" xmlns="http://www.w3.org/2000/svg" xmlns:xlink="http://www.w3.org/1999/xlink">
<svg xmlns="http://www.w3.org/2000/svg" viewBox="0 0 1000 1000"><g id="background-9"><rect id="Background-9" width="1025" height="1025" style="fill:#fec233" /></g></svg>
<svg xmlns="http://www.w3.org/2000/svg" viewBox="0 0 1000 1000"><g id="Body-8"><rect x="161.21" y="452.66" width="687.79" height="552.16" style="fill:#ba3d11" /><rect x="309.41" y="451.15" width="382.27" height="553.67" style="fill:#542f5f" /><rect x="500.36" y="451.15" width="194.64" height="553.67" style="fill:#172027" /></g></svg>
<svg xmlns="http://www.w3.org/2000/svg" viewBox="0 0 1000 1000"><g id="head-4"><path d="M509.28,149.06H431.83A200.45,200.45,0,0,0,254,257L111,532,332,787.85A234.27,234.27,0,0,0,509.28,869h0Z" transform="translate(-1.66 0)" style="fill:#df2d2c" /><path d="M509.28,149.06h77.44A200.45,200.45,0,0,1,764.55,257l143,275-221,255.84A234.27,234.27,0,0,1,509.28,869h0Z" transform="translate(-1.66 0)" style="fill:#c12e58" /></g></svg>
<svg xmlns="http://www.w3.org/2000/svg" viewBox="0 0 1000 1000"><g id="ears-6"><path d="M305.64,230v64A22.69,22.69,0,0,1,283,316.61H262.15a97.69,97.69,0,0,0-37.57,7.51h0a87.1,87.1,0,0,1-112.14-43L108,271.88a86.58,86.58,0,0,1,44.06-116.81h0A86.61,86.61,0,0,1,208.5,151l89.26,23.81H187.46a39.39,39.39,0,0,0-39.39,39.39h0a39.4,39.4,0,0,0,39.39,39.39h4.85A39.42,39.42,0,0,0,212.58,248l40.76-24.46a42.8,42.8,0,0,1,52.3,6.44Z" transform="translate(0.34)" style="fill:#542f5f" /><path d="M722.64,230.16v64a22.68,22.68,0,0,0,22.68,22.68h20.81a97.64,97.64,0,0,1,37.56,7.51h0a87.11,87.11,0,0,0,112.15-42.95l4.42-9.29a86.58,86.58,0,0,0-44.07-116.81h0a86.58,86.58,0,0,0-56.41-4.07L730.51,175h110.3A39.39,39.39,0,0,1,880.2,214.4h0a39.38,39.38,0,0,1-39.39,39.39H836a39.42,39.42,0,0,1-20.27-5.61l-40.77-24.46a42.8,42.8,0,0,0-52.29,6.44Z" transform="translate(0.34)" style="fill:#111c0d" /></g></svg>
<svg xmlns="http://www.w3.org/2000/svg" viewBox="0 0 1000 1000"><g id="mouth-2"><path d="M319.44,644.51h0a298.58,298.58,0,0,0,171.25,54h13.83v-54" transform="translate(0.28 0)" style="fill:#ba3d11" /><path d="M690.74,644.23h0a298.61,298.61,0,0,1-171.26,54H505.65v-54" transform="translate(0.28 0)" style="fill:#a31905" /><polygon points="504.8 613.66 481.66 590.53 312 644.51 504.8 644.51 504.8 613.66" style="fill:#6c1908" /><polygon points="505.93 613.38 529.07 590.25 698.73 644.23 505.93 644.23 505.93 613.38" style="fill:#3e1b11" /></g></svg>
<svg xmlns="http://www.w3.org/2000/svg" viewBox="0 0 1000 1000"><g id="nose-6"><path d="M506.86,446.53V548.46h0a38.67,38.67,0,0,1-38-45.59l10.24-56.34Z" transform="translate(-1.66 0)" style="fill:#f55b20" /><path d="M505.88,446.53V548.46h0a38.67,38.67,0,0,0,38-45.59l-10.25-56.34Z" transform="translate(-1.66 0)" style="fill:#883a62" /></g></svg>
<svg xmlns="http://www.w3.org/2000/svg" viewBox="0 0 1000 1000"><g id="eyes-8"><circle cx="348.4" cy="415.43" r="75.59" style="fill:#fff8da" /><circle cx="667.54" cy="415.43" r="75.59" style="fill:#aba2ca" /><circle cx="348.4" cy="415.43" r="41.99" style="fill:#2c1f41" /><circle cx="667.54" cy="415.43" r="41.99" style="fill:#172027" /></g></svg>
</svg>