<svg id="bitcoin-face-for-bc1qndx4gheprmytf6fwhea7curqjm03v3mrk0ya03" width="100%" height="100%" viewBox="0 0 1025 1025" xmlns="http://www.w3.org/2000/svg" xmlns:xlink="http://www.w3.org/1999/xlink">
<svg xmlns="http://www.w3.org/2000/svg" viewBox="0 0 1000 1000"><g id="background-7"><rect id="Background-7" width="1025" height="1025" style="fill:#fc532d" /></g></svg>
<svg xmlns="http://www.w3.org/2000/svg" viewBox="0 0 1000 1000"><g id="Body-6"><rect x="299.41" y="680.41" width="414.66" height="319.69" style="fill:#383838" /><rect x="501.93" y="685.27" width="211.14" height="314.83" style="fill:#7814bc;opacity:0.64;mix-blend-mode:multiply" /><path d="M209.23,1000.1h-71v-90c0-94,76.48-170.5,170.5-170.5v71a99.61,99.61,0,0,0-99.5,99.5Z" transform="translate(-0.66)" style="fill:#df2d2c" /><path d="M875.73,1000.1h-71v-90a99.62,99.62,0,0,0-99.5-99.5v-71c94,0,170.5,76.49,170.5,170.5Z" transform="translate(-0.66)" style="fill:#c12e58" /><rect x="272.07" y="730.1" width="45" height="108" style="fill:#383838" /><rect x="695.07" y="730.1" width="45" height="108" style="fill:#383838" /></g></svg>
<svg xmlns="http://www.w3.org/2000/svg" viewBox="0 0 1000 1000"><g id="head-10"><path d="M500.1,140.7h0c187.52,0,348.53,152,348.53,339.53V716.86H496" transform="translate(9.03 13)" style="fill:#727fbd" /><path d="M513.51,140.45h-9C317,140.45,165,292.46,165,480V716.86H506.8" transform="translate(9.03 13)" style="fill:#aaaecc" /><path d="M506.8,844.21H606a294.75,294.75,0,0,0,242.6-127.35H506.8Z" transform="translate(9.03 13)" style="fill:#727fbd" /><path d="M506.8,844.21H407.58A294.75,294.75,0,0,1,165,716.86H506.8Z" transform="translate(9.03 13)" style="fill:#aaaecc" /></g></svg>
<svg xmlns="http://www.w3.org/2000/svg" viewBox="0 0 1000 1000"><g id="ears-2"><circle cx="133.72" cy="393.44" r="61.91" style="fill:#883a62" /><circle cx="154.36" cy="469.11" r="41.27" style="fill:#883a62" /><circle cx="181.87" cy="427.84" r="41.27" style="fill:#542f5f" /><g style="opacity:0.5700000000000001;mix-blend-mode:overlay"><line x1="126.08" y1="359.82" x2="194.87" y2="428.6" style="fill:none;stroke:#070707;stroke-miterlimit:10;stroke-width:3px" /><line x1="181.87" y1="436.67" x2="146.52" y2="472.03" style="fill:none;stroke:#070707;stroke-miterlimit:10;stroke-width:3px" /><line x1="155.36" y1="392.49" x2="128.85" y2="419" style="fill:none;stroke:#070707;stroke-miterlimit:10;stroke-width:3px" /><line x1="164.2" y1="401.32" x2="128.85" y2="436.67" style="fill:none;stroke:#070707;stroke-miterlimit:10;stroke-width:3px" /></g><circle cx="119.85" cy="534.05" r="53.19" style="fill:#f96020" /><circle cx="119.84" cy="534.05" r="46.55" style="fill:#d74816" /><circle cx="890.1" cy="392.85" r="61.91" style="fill:#883a62" /><circle cx="869.47" cy="468.51" r="41.27" style="fill:#883a62" /><circle cx="841.95" cy="427.24" r="41.27" style="fill:#542f5f" /><g style="opacity:0.5700000000000001;mix-blend-mode:overlay"><line x1="897.75" y1="359.22" x2="828.96" y2="428.01" style="fill:none;stroke:#070707;stroke-miterlimit:10;stroke-width:3px" /><line x1="841.95" y1="436.08" x2="877.31" y2="471.43" style="fill:none;stroke:#070707;stroke-miterlimit:10;stroke-width:3px" /><line x1="868.47" y1="391.89" x2="894.98" y2="418.41" style="fill:none;stroke:#070707;stroke-miterlimit:10;stroke-width:3px" /><line x1="859.63" y1="400.73" x2="894.98" y2="436.08" style="fill:none;stroke:#070707;stroke-miterlimit:10;stroke-width:3px" /></g><circle cx="903.98" cy="533.46" r="53.19" style="fill:#f96020" /><circle cx="903.99" cy="533.46" r="46.55" style="fill:#d74816" /></g></svg>
<svg xmlns="http://www.w3.org/2000/svg" viewBox="0 0 1000 1000"><g id="mouth-7"><rect x="230.22" y="545" width="555.76" height="161.34" style="fill:#e63580" /><rect x="508.76" y="561.13" width="256.08" height="145.21" transform="translate(1272.95 1267.48) rotate(-180)" style="fill:#dbb9be" /><rect x="704.91" y="561.13" width="16.35" height="145.21" transform="translate(1425.51 1267.48) rotate(-180)" style="fill:#161f26" /><rect x="502.71" y="625.67" width="262.14" height="5.38" transform="translate(1266.89 1256.72) rotate(-180)" style="fill:#161f26" /><rect x="252.02" y="561.13" width="256.08" height="145.21" style="fill:#efe1da" /><rect x="295.61" y="561.13" width="16.35" height="145.21" style="fill:#161f26" /><rect x="252.02" y="625.67" width="262.14" height="5.38" style="fill:#161f26" /><rect x="350.09" y="561.13" width="16.35" height="145.21" style="fill:#161f26" /><rect x="404.58" y="561.13" width="16.35" height="145.21" style="fill:#161f26" /><rect x="459.06" y="561.13" width="16.35" height="145.21" style="fill:#161f26" /><rect x="540.79" y="561.13" width="16.35" height="145.21" style="fill:#161f26" /><rect x="595.28" y="561.13" width="16.35" height="145.21" style="fill:#161f26" /><rect x="649.77" y="561.13" width="16.35" height="145.21" style="fill:#161f26" /><rect x="243.17" y="553.18" width="535.67" height="35.71" style="fill:#7814bc;opacity:0.34;mix-blend-mode:multiply" /><rect x="228.88" y="703.17" width="557.1" height="14.28" style="fill:#e63580" /><rect x="236.02" y="710.31" width="535.67" height="21.43" style="fill:#7814bc;opacity:0.34;mix-blend-mode:multiply" /></g></svg>
<svg xmlns="http://www.w3.org/2000/svg" viewBox="0 0 1000 1000"><g id="nose-1"><path d="M515.59,360.78h0A111.68,111.68,0,0,1,627.27,472.46V598.54a0,0,0,0,1,0,0H403.92a0,0,0,0,1,0,0V472.46A111.68,111.68,0,0,1,515.59,360.78Z" style="fill:#883a62;opacity:0.7000000000000001" /><path d="M458.09,527.5h59.68V427.43H476.51a24.44,24.44,0,0,0-23,16.17l-18.42,51.17A24.45,24.45,0,0,0,458.09,527.5Z" transform="translate(9.03 13)" style="fill:#fa8cb2" /><circle cx="479.97" cy="487.27" r="18.01" style="fill:#542f5f" /><path d="M551.83,527.9H506.16V427.83h27.25a24.45,24.45,0,0,1,23,16.17l18.42,51.17A24.45,24.45,0,0,1,551.83,527.9Z" transform="translate(9.03 13)" style="fill:#f46461" /><circle cx="548.01" cy="486.55" r="18.01" style="fill:#172027" /></g></svg>
<svg xmlns="http://www.w3.org/2000/svg" viewBox="0 0 1000 1000"><g id="eyes-1"><circle cx="363.57" cy="441.83" r="93.68" style="fill:#001a1b" /><circle cx="363.57" cy="441.83" r="57.99" style="fill:#efe1da" /><circle cx="363.57" cy="441.83" r="40.15" style="fill:#ed7e29" /><polyline points="368.03 393.26 368.03 428.94 399.25 397.72" style="fill:#efe1da" /><circle cx="363.78" cy="441.68" r="67.07" style="fill:none;stroke:#883a62;stroke-miterlimit:10;stroke-width:4px" /><circle cx="648.94" cy="438.93" r="93.68" style="fill:#001a1b" /><circle cx="648.94" cy="438.93" r="57.99" style="fill:#efe1da" /><circle cx="648.94" cy="438.93" r="40.15" style="fill:#ed7e29" /><polyline points="653.4 390.36 653.4 426.04 684.63 394.82" style="fill:#efe1da" /><circle cx="649.15" cy="438.78" r="67.07" style="fill:none;stroke:#883a62;stroke-miterlimit:10;stroke-width:4px" /><path d="M553.7,432.32V380a89.59,89.59,0,0,1,89.59-89.59h16.86" transform="translate(0.28 0)" style="fill:none;stroke:#e9dedb;stroke-linecap:round;stroke-miterlimit:10;stroke-width:4px;mix-blend-mode:overlay" /><path d="M545.77,432V375.9a96,96,0,0,1,96-96h18.07" transform="translate(0.28 0)" style="fill:none;stroke:#e9dedb;stroke-linecap:round;stroke-miterlimit:10;stroke-width:4px;mix-blend-mode:overlay" /><path d="M528.38,432.45V368A110.38,110.38,0,0,1,638.76,257.57h20.78" transform="translate(0.28 0)" style="fill:none;stroke:#e9dedb;stroke-linecap:round;stroke-miterlimit:10;stroke-width:4px;mix-blend-mode:overlay" /><path d="M459.43,432.32V380a89.59,89.59,0,0,0-89.59-89.59H353" transform="translate(0.28 0)" style="fill:none;stroke:#e9dedb;stroke-linecap:round;stroke-miterlimit:10;stroke-width:4px;mix-blend-mode:overlay" /><path d="M467.36,432V375.9a96,96,0,0,0-96-96H353.32" transform="translate(0.28 0)" style="fill:none;stroke:#e9dedb;stroke-linecap:round;stroke-miterlimit:10;stroke-width:4px;mix-blend-mode:overlay" /><path d="M484.75,432.45V368A110.38,110.38,0,0,0,374.37,257.57H353.59" transform="translate(0.28 0)" style="fill:none;stroke:#e9dedb;stroke-linecap:round;stroke-miterlimit:10;stroke-width:4px;mix-blend-mode:overlay" /><polyline points="720.19 379.63 806.03 448.31 720.19 448.31" style="fill:#001a1b" /><polyline points="295.05 379.63 209.21 448.31 295.05 448.31" style="fill:#001a1b" /></g></svg>
</svg>