<svg id="bitcoin-face-for-arc0" width="100%" height="100%" viewBox="0 0 1025 1025" xmlns="http://www.w3.org/2000/svg" xmlns:xlink="http://www.w3.org/1999/xlink">
<svg xmlns="http://www.w3.org/2000/svg" viewBox="0 0 1000 1000"><g id="background-9"><rect id="Background-9" width="1025" height="1025" style="fill:#fec233" /></g></svg>
<svg xmlns="http://www.w3.org/2000/svg" viewBox="0 0 1000 1000"><g id="Body-7"><rect x="205.14" y="470" width="615.55" height="543.18" style="fill:#a02a15" /><rect x="205.85" y="982.74" width="612" height="30.44" style="fill:#de2f7a" /><rect x="205.85" y="944.69" width="612" height="30.44" style="fill:#de2f7a" /><rect x="205.85" y="906.63" width="612" height="30.44" style="fill:#de2f7a" /><rect x="205.85" y="868.58" width="612" height="30.44" style="fill:#de2f7a" /><rect x="205.85" y="830.53" width="612" height="30.44" style="fill:#de2f7a" /><rect x="205.85" y="792.48" width="612" height="30.44" style="fill:#de2f7a" /><rect x="205.85" y="754.43" width="612" height="30.44" style="fill:#de2f7a" /><rect x="205.85" y="716.37" width="612" height="30.44" style="fill:#de2f7a" /><rect x="205.85" y="678.32" width="612" height="30.44" style="fill:#de2f7a" /><rect x="205.85" y="640.27" width="612" height="30.44" style="fill:#de2f7a" /><rect x="205.85" y="602.22" width="612" height="30.44" style="fill:#de2f7a" /><rect x="205.85" y="564.17" width="612" height="30.44" style="fill:#de2f7a" /><rect x="508.8" y="509.31" width="312.26" height="503.87" style="fill:#7814bc;opacity:0.34;mix-blend-mode:multiply" /></g></svg>
<svg xmlns="http://www.w3.org/2000/svg" viewBox="0 0 1000 1000"><g id="head-5"><circle cx="500.93" cy="503.62" r="345.28" style="fill:#df2d2c" /><path d="M503.39,158.34c190.69,0,345.28,154.59,345.28,345.28S694.08,848.91,503.39,848.91" transform="translate(0.28)" style="fill:#c12e58" /></g></svg>
<svg xmlns="http://www.w3.org/2000/svg" viewBox="0 0 1000 1000"><g id="ears-5"><path d="M301.29,274.91l-6.63-25.77c-17-66.23-97.09-92.34-149.9-48.9l-105,86.42,152.65,37.18L265.15,264l20,24.27" transform="translate(0.28 0)" style="fill:#ba3d11" /><path d="M716.14,275.66l6.63-25.77c17-66.23,97.09-92.34,149.9-48.9l105.05,86.43L825.08,324.59l-72.8-59.89-20,24.27" transform="translate(0.28 0)" style="fill:#a31905" /></g></svg>
<svg xmlns="http://www.w3.org/2000/svg" viewBox="0 0 1000 1000"><g id="face-accessory-1"><circle cx="516.52" cy="942.46" r="62.02" style="fill:#f96020" /><circle cx="516.52" cy="942.46" r="54.28" style="fill:#d74816" /><rect x="487.05" y="879.79" width="35.52" height="96.79" transform="translate(214.46 1954.46) rotate(-135)" style="fill:#ffa520" /><circle cx="510.95" cy="942.07" r="66.36" style="fill:#f96020" /><circle cx="510.94" cy="942.07" r="58.08" style="fill:#d74816" /><g id="_04CbBX.tif" data-name="04CbBX.tif"><path d="M499.36,875.6h5.23a5.28,5.28,0,0,0,1.13.08c1.51.13,3,.28,4.52.52a52.15,52.15,0,0,1,10.43,2.72,53.73,53.73,0,0,1,32.17,33.55,52.41,52.41,0,0,1,2.21,10c.15,1.22.26,2.45.31,3.67a1.63,1.63,0,0,0,.08.82v4.31a1.52,1.52,0,0,0-.08.82,46.85,46.85,0,0,1-.52,5.14,52,52,0,0,1-5.39,16.51,53.57,53.57,0,0,1-43.89,28.75,50.62,50.62,0,0,1-8-.07,52.07,52.07,0,0,1-10.21-1.83,53.13,53.13,0,0,1-29.73-21.46,53,53,0,0,1-9.05-25.57,17,17,0,0,0-.16-1.88c0-.61,0-1.22,0-1.83,0-1.1,0-2.2,0-3.3a.77.77,0,0,0,.07-.4,53.09,53.09,0,0,1,5.25-20.37,53.67,53.67,0,0,1,35.15-28.6,54.71,54.71,0,0,1,9.34-1.48A8.57,8.57,0,0,0,499.36,875.6Zm-42,53.5a44.61,44.61,0,1,0,44.59-44.62A44.59,44.59,0,0,0,457.33,929.1Z" transform="translate(9.03 13)" style="fill:#ff9317" /><path d="M515.36,927.51a21.52,21.52,0,0,1,5.48,1.69,11.83,11.83,0,0,1,5.27,4.7,12,12,0,0,1,1.52,4.64,17.76,17.76,0,0,1-.27,6.21,10.87,10.87,0,0,1-6.8,8,25.21,25.21,0,0,1-5.77,1.53c-1.34.21-2.68.35-4,.44-.47,0-.47,0-.47.51v7.94c0,.5,0,.51-.51.51H504c-.56,0-.53,0-.53-.53v-7.68c0-.64.05-.57-.58-.57h-5.8c-.46,0-.46,0-.47.48v7.73c0,.59,0,.57-.54.57h-5.74c-.55,0-.55,0-.55-.57,0-2.51,0-5,0-7.53,0-.14,0-.27,0-.41s-.06-.29-.26-.27H476.43c-.24,0-.34-.06-.34-.31,0-1.9,0-3.79,0-5.69,0-.27.11-.35.36-.35,1.18,0,2.36,0,3.54,0a10.18,10.18,0,0,0,2.13-.27,1.92,1.92,0,0,0,1.55-1.57,11.89,11.89,0,0,0,.29-2.85V921.52c0-2.47,0-4.95,0-7.43a13.56,13.56,0,0,0-.27-2.69,2,2,0,0,0-1.71-1.68,13.39,13.39,0,0,0-2.75-.24h-2.66c-.47,0-.47,0-.47-.49,0-1.76,0-3.51,0-5.27,0-.6-.06-.56.54-.57h12.55c.57,0,.57,0,.58-.54v-7.89c0-.2.09-.28.28-.26h6c.61,0,.56-.06.56.54,0,2.51,0,5,0,7.53,0,.7-.05.62.64.62H503c.46,0,.46,0,.47-.49v-7.94c0-.2.07-.28.27-.26h6c.59,0,.57-.09.57.58v7.84c0,.39,0,.39.39.42a32.44,32.44,0,0,1,6.11,1,17.64,17.64,0,0,1,3.2,1.2,9.17,9.17,0,0,1,5,6.06,14.22,14.22,0,0,1,.12,7.24,10.31,10.31,0,0,1-4.17,6,18.31,18.31,0,0,1-5.34,2.53C515.55,927.36,515.43,927.34,515.36,927.51Zm-18.76,12.4c0,2.77,0,5.53,0,8.3,0,.44,0,.45.44.45h3a44,44,0,0,0,6.39-.31,15,15,0,0,0,3.66-.93,6.31,6.31,0,0,0,3.8-4.16,12,12,0,0,0,.26-6,6.32,6.32,0,0,0-2.8-4.24A9.11,9.11,0,0,0,508.7,932a23.93,23.93,0,0,0-4.61-.65c-2.39-.14-4.78,0-7.17-.08-.26,0-.34.1-.32.33s0,.24,0,.36Zm0-22.76v4.25c0,1.05,0,2.09,0,3.13,0,.25,0,.37.34.37a68.58,68.58,0,0,0,7.72-.23,14.47,14.47,0,0,0,3.67-.89,5.57,5.57,0,0,0,3.45-4A11.75,11.75,0,0,0,512,915a5.49,5.49,0,0,0-3.83-4.58,18.25,18.25,0,0,0-5-.88c-2-.1-4,0-6,0h-.21c-.17,0-.25.08-.24.25s0,.27,0,.41Z" transform="translate(9.03 13)" style="fill:#ff9317" /></g><circle cx="459.8" cy="882.7" r="13.97" style="fill:#ff9317" /><circle cx="438.84" cy="861.74" r="13.97" style="fill:#ff9317" /><circle cx="417.89" cy="840.79" r="13.97" style="fill:#ff9317" /><circle cx="396.93" cy="819.83" r="13.97" style="fill:#ff9317" /><circle cx="564.57" cy="882.7" r="13.97" style="fill:#f96020" /><circle cx="585.53" cy="861.74" r="13.97" style="fill:#f96020" /><circle cx="606.48" cy="840.79" r="13.97" style="fill:#f96020" /><circle cx="627.44" cy="819.83" r="13.97" style="fill:#f96020" /></g></svg>
<svg xmlns="http://www.w3.org/2000/svg" viewBox="0 0 1000 1000"><g id="mouth-2"><path d="M319.44,644.51h0a298.58,298.58,0,0,0,171.25,54h13.83v-54" transform="translate(0.28 0)" style="fill:#ba3d11" /><path d="M690.74,644.23h0a298.61,298.61,0,0,1-171.26,54H505.65v-54" transform="translate(0.28 0)" style="fill:#a31905" /><polygon points="504.8 613.66 481.66 590.53 312 644.51 504.8 644.51 504.8 613.66" style="fill:#6c1908" /><polygon points="505.93 613.38 529.07 590.25 698.73 644.23 505.93 644.23 505.93 613.38" style="fill:#3e1b11" /></g></svg>
<svg xmlns="http://www.w3.org/2000/svg" viewBox="0 0 1000 1000"><g id="nose-2"><circle cx="478.44" cy="516.44" r="9.88" style="fill:#303636" /><path d="M503,519.73h-3.65a24.52,24.52,0,0,0-49,0H446.7a28.17,28.17,0,0,1,56.34,0Z" transform="translate(0.28 0)" style="fill:#efe1da" /><circle cx="535.24" cy="515.88" r="9.88" style="fill:#303636" /><path d="M510.08,519.17h3.66a24.52,24.52,0,0,1,49,0h3.66a28.18,28.18,0,0,0-56.35,0Z" transform="translate(0.28 0)" style="fill:#efe1da" /></g></svg>
<svg xmlns="http://www.w3.org/2000/svg" viewBox="0 0 1000 1000"><g id="hat-5"><path d="M704.39,126H507.13l12.77,10.22A138.53,138.53,0,0,0,704.39,126Z" transform="translate(0.28)" style="fill:#ffa520" /><path d="M703.55,126H506.29l12.77-10.22A138.53,138.53,0,0,1,703.55,126Z" transform="translate(0.28)" style="fill:#b98d22" /></g></svg>
<svg xmlns="http://www.w3.org/2000/svg" viewBox="0 0 1000 1000"><g id="eyes-1"><circle cx="363.57" cy="441.83" r="93.68" style="fill:#001a1b" /><circle cx="363.57" cy="441.83" r="57.99" style="fill:#efe1da" /><circle cx="363.57" cy="441.83" r="40.15" style="fill:#ed7e29" /><polyline points="368.03 393.26 368.03 428.94 399.25 397.72" style="fill:#efe1da" /><circle cx="363.78" cy="441.68" r="67.07" style="fill:none;stroke:#883a62;stroke-miterlimit:10;stroke-width:4px" /><circle cx="648.94" cy="438.93" r="93.68" style="fill:#001a1b" /><circle cx="648.94" cy="438.93" r="57.99" style="fill:#efe1da" /><circle cx="648.94" cy="438.93" r="40.15" style="fill:#ed7e29" /><polyline points="653.4 390.36 653.4 426.04 684.63 394.82" style="fill:#efe1da" /><circle cx="649.15" cy="438.78" r="67.07" style="fill:none;stroke:#883a62;stroke-miterlimit:10;stroke-width:4px" /><path d="M553.7,432.32V380a89.59,89.59,0,0,1,89.59-89.59h16.86" transform="translate(0.28 0)" style="fill:none;stroke:#e9dedb;stroke-linecap:round;stroke-miterlimit:10;stroke-width:4px;mix-blend-mode:overlay" /><path d="M545.77,432V375.9a96,96,0,0,1,96-96h18.07" transform="translate(0.28 0)" style="fill:none;stroke:#e9dedb;stroke-linecap:round;stroke-miterlimit:10;stroke-width:4px;mix-blend-mode:overlay" /><path d="M528.38,432.45V368A110.38,110.38,0,0,1,638.76,257.57h20.78" transform="translate(0.28 0)" style="fill:none;stroke:#e9dedb;stroke-linecap:round;stroke-miterlimit:10;stroke-width:4px;mix-blend-mode:overlay" /><path d="M459.43,432.32V380a89.59,89.59,0,0,0-89.59-89.59H353" transform="translate(0.28 0)" style="fill:none;stroke:#e9dedb;stroke-linecap:round;stroke-miterlimit:10;stroke-width:4px;mix-blend-mode:overlay" /><path d="M467.36,432V375.9a96,96,0,0,0-96-96H353.32" transform="translate(0.28 0)" style="fill:none;stroke:#e9dedb;stroke-linecap:round;stroke-miterlimit:10;stroke-width:4px;mix-blend-mode:overlay" /><path d="M484.75,432.45V368A110.38,110.38,0,0,0,374.37,257.57H353.59" transform="translate(0.28 0)" style="fill:none;stroke:#e9dedb;stroke-linecap:round;stroke-miterlimit:10;stroke-width:4px;mix-blend-mode:overlay" /><polyline points="720.19 379.63 806.03 448.31 720.19 448.31" style="fill:#001a1b" /><polyline points="295.05 379.63 209.21 448.31 295.05 448.31" style="fill:#001a1b" /></g></svg>
</svg>