<svg id="bitcoin-face-for-spark0.btc" width="100%" height="100%" viewBox="0 0 1025 1025" xmlns="http://www.w3.org/2000/svg" xmlns:xlink="http://www.w3.org/1999/xlink">
<svg xmlns="http://www.w3.org/2000/svg" viewBox="0 0 1000 1000"><g id="background-2"><rect id="Background-2" width="1025" height="1025" style="fill:#3d4b8a" /></g></svg>
<svg xmlns="http://www.w3.org/2000/svg" viewBox="0 0 1000 1000"><g id="Body-7"><rect x="205.14" y="470" width="615.55" height="543.18" style="fill:#a02a15" /><rect x="205.85" y="982.74" width="612" height="30.44" style="fill:#de2f7a" /><rect x="205.85" y="944.69" width="612" height="30.44" style="fill:#de2f7a" /><rect x="205.85" y="906.63" width="612" height="30.44" style="fill:#de2f7a" /><rect x="205.85" y="868.58" width="612" height="30.44" style="fill:#de2f7a" /><rect x="205.85" y="830.53" width="612" height="30.44" style="fill:#de2f7a" /><rect x="205.85" y="792.48" width="612" height="30.44" style="fill:#de2f7a" /><rect x="205.85" y="754.43" width="612" height="30.44" style="fill:#de2f7a" /><rect x="205.85" y="716.37" width="612" height="30.44" style="fill:#de2f7a" /><rect x="205.85" y="678.32" width="612" height="30.44" style="fill:#de2f7a" /><rect x="205.85" y="640.27" width="612" height="30.44" style="fill:#de2f7a" /><rect x="205.85" y="602.22" width="612" height="30.44" style="fill:#de2f7a" /><rect x="205.85" y="564.17" width="612" height="30.44" style="fill:#de2f7a" /><rect x="508.8" y="509.31" width="312.26" height="503.87" style="fill:#7814bc;opacity:0.34;mix-blend-mode:multiply" /></g></svg>
<svg xmlns="http://www.w3.org/2000/svg" viewBox="0 0 1000 1000"><g id="head-5"><circle cx="500.93" cy="503.62" r="345.28" style="fill:#df2d2c" /><path d="M503.39,158.34c190.69,0,345.28,154.59,345.28,345.28S694.08,848.91,503.39,848.91" transform="translate(0.28)" style="fill:#c12e58" /></g></svg>
<svg xmlns="http://www.w3.org/2000/svg" viewBox="0 0 1000 1000"><g id="ears-6"><path d="M305.64,230v64A22.69,22.69,0,0,1,283,316.61H262.15a97.69,97.69,0,0,0-37.57,7.51h0a87.1,87.1,0,0,1-112.14-43L108,271.88a86.58,86.58,0,0,1,44.06-116.81h0A86.61,86.61,0,0,1,208.5,151l89.26,23.81H187.46a39.39,39.39,0,0,0-39.39,39.39h0a39.4,39.4,0,0,0,39.39,39.39h4.85A39.42,39.42,0,0,0,212.58,248l40.76-24.46a42.8,42.8,0,0,1,52.3,6.44Z" transform="translate(0.34)" style="fill:#542f5f" /><path d="M722.64,230.16v64a22.68,22.68,0,0,0,22.68,22.68h20.81a97.64,97.64,0,0,1,37.56,7.51h0a87.11,87.11,0,0,0,112.15-42.95l4.42-9.29a86.58,86.58,0,0,0-44.07-116.81h0a86.58,86.58,0,0,0-56.41-4.07L730.51,175h110.3A39.39,39.39,0,0,1,880.2,214.4h0a39.38,39.38,0,0,1-39.39,39.39H836a39.42,39.42,0,0,1-20.27-5.61l-40.77-24.46a42.8,42.8,0,0,0-52.29,6.44Z" transform="translate(0.34)" style="fill:#111c0d" /></g></svg>
<svg xmlns="http://www.w3.org/2000/svg" viewBox="0 0 1000 1000"><g id="mouth-8"><path d="M395.9,567.42a110.38,110.38,0,0,0,220.38,0Z" transform="translate(0.28)" style="fill:#542f5f" /><path d="M423.28,585.56a83.29,83.29,0,0,0,163.11,0Z" transform="translate(0.28)" style="fill:#001a1b" /></g></svg>
<svg xmlns="http://www.w3.org/2000/svg" viewBox="0 0 1000 1000"><g id="nose-4"><path d="M504.85,534.76l-99.51-59.7h0a108,108,0,0,1,95.7,7.67l3.81,2.28" transform="translate(-1.55 4)" style="fill:#4a3022" /><path d="M505.3,534.65l99.51-59.71h0a108,108,0,0,0-95.71,7.67l-3.8,2.28" transform="translate(-1.55 4)" style="fill:#021213" /></g></svg>
<svg xmlns="http://www.w3.org/2000/svg" viewBox="0 0 1000 1000"><defs><linearGradient id="laser-eyes-3-gradient" x1="50%" y1="0%" x2="50%" y2="100%"><stop offset="0%" style="stop-color:#FFBD6B; stop-opacity:1" /><stop offset="100%" style="stop-color:#FFBD6B; stop-opacity:0.3" /></linearGradient><linearGradient id="starburst-updown-gradient" x1="50%" y1="0%" x2="50%" y2="100%"><stop offset="0%" style="stop-color:#FFBD6B; stop-opacity:0" /><stop offset="35%" style="stop-color:#FFBD6B; stop-opacity:1" /><stop offset="65%" style="stop-color:#FFBD6B; stop-opacity:1" /><stop offset="100%" style="stop-color:#FFBD6B; stop-opacity:0" /></linearGradient><linearGradient id="starburst-updown-gradient-accent" x1="50%" y1="0%" x2="50%" y2="100%"><stop offset="0%" style="stop-color:#FFBD6B; stop-opacity:0" /><stop offset="35%" style="stop-color:#FFBD6B; stop-opacity:1" /><stop offset="65%" style="stop-color:#FFBD6B; stop-opacity:1" /><stop offset="100%" style="stop-color:#FFBD6B; stop-opacity:0" /></linearGradient><linearGradient id="starburst-leftright-gradient" x1="0%" y1="50%" x2="100%" y2="50%"><stop offset="0%" style="stop-color:#FFBD6B; stop-opacity:0" /><stop offset="50%" style="stop-color:#FFBD6B; stop-opacity:1" /><stop offset="100%" style="stop-color:#FFBD6B; stop-opacity:0" /></linearGradient><linearGradient id="starburst-leftright-gradient-accent" x1="0%" y1="50%" x2="100%" y2="50%"><stop offset="0%" style="stop-color:#FFBD6B; stop-opacity:0" /><stop offset="35%" style="stop-color:#FFBD6B; stop-opacity:1" /><stop offset="65%" style="stop-color:#FFBD6B; stop-opacity:1" /><stop offset="100%" style="stop-color:#FFBD6B; stop-opacity:0" /></linearGradient></defs><g id="eyes-4"><path d="M438.33,350.2v153L297.06,456.15V418.31c0-60.4,61.45-101.37,117.21-78.14Z" transform="translate(-1.66 0)" style="fill:#ba3d11" /><circle cx="377.8" cy="420.83" r="35.32" style="fill:#e1ae39" /><circle cx="377.8" cy="420.83" r="23.55" style="fill:#4a3022" /><path d="M580.14,350.06v153L721.41,456V418.17c0-60.4-61.45-101.37-117.21-78.14Z" transform="translate(-1.66 0)" style="fill:#a31905" /><circle cx="637.34" cy="420.69" r="35.32" style="fill:#e17728" /><circle cx="637.34" cy="420.69" r="23.55" style="fill:#021213" /><polygon points="343.98 598.73 341 596.12 422.91 502.5 422.91 432.61 426.88 432.61 426.88 503.99 343.98 598.73" style="fill:#a31905" /><path d="M263.73,540.54h-2v-4h2a245.91,245.91,0,0,0,126.49-35l2,3.4A249.87,249.87,0,0,1,263.73,540.54Z" transform="translate(-1.66 0)" style="fill:#ba3d11" /><polygon points="671.16 598.59 588.26 503.85 588.26 432.47 592.23 432.47 592.23 502.36 674.15 595.98 671.16 598.59" style="fill:#6c1908" /><path d="M756.72,540.4h-2a249.84,249.84,0,0,1-128.52-35.6l2-3.4a245.9,245.9,0,0,0,126.48,35h2Z" transform="translate(-1.66 0)" style="fill:#a31905" /></g><g id="laser-eyes-3"><rect width="242" height="2439" transform="translate(348 415) scale(0.24)" fill="url(#laser-eyes-3-gradient)" style="mix-blend-mode:hard-light" /><rect width="242" height="2439" transform="translate(609 415) scale(0.24)" fill="url(#laser-eyes-3-gradient)" style="mix-blend-mode:hard-light" /></g><g id="laser-eyes-starburst"><g id="eye-covers"><circle cx="377.8" cy="420.83" r="24" style="fill:#FFBD6B;mix-blend-mode:overlay" /><circle cx="637.34" cy="420.69" r="24" style="fill:#FFBD6B;mix-blend-mode:overlay" /></g><g id="up-down"><rect width="150" height="2439" transform="translate(359 180) scale(0.24)" fill="url(#starburst-updown-gradient)" style="mix-blend-mode:hard-light" /><rect width="150" height="2439" transform="translate(620 180) scale(0.24)" fill="url(#starburst-updown-gradient)" style="mix-blend-mode:hard-light" /></g><g id="up-down-accent"><rect width="50" height="3500" transform="translate(371 60) scale(0.24)" fill="url(#starburst-updown-gradient-accent)" style="mix-blend-mode:hard-light" /><rect width="50" height="3500" transform="translate(632 60) scale(0.24)" fill="url(#starburst-updown-gradient-accent)" style="mix-blend-mode:hard-light" /></g><g id="left-right"><rect width="2000" height="150" transform="translate(110 405) scale(0.24)" fill="url(#starburst-leftright-gradient)" style="mix-blend-mode:hard-light" /><rect width="2000" height="150" transform="translate(400 405) scale(0.24)" fill="url(#starburst-leftright-gradient)" style="mix-blend-mode:hard-light" /></g><g id="left-right-accent"><rect width="3500" height="50" transform="translate(80 415) scale(0.24)" fill="url(#starburst-leftright-gradient-accent)" style="mix-blend-mode:hard-light" /></g></g></svg>
</svg>