<svg id="bitcoin-face-for-loom0btc" width="100%" height="100%" viewBox="0 0 1025 1025" xmlns="http://www.w3.org/2000/svg" xmlns:xlink="http://www.w3.org/1999/xlink">
<svg xmlns="http://www.w3.org/2000/svg" viewBox="0 0 1000 1000"><g id="background-5"><rect id="Background-5" width="1025" height="1025" style="fill:#f8f3c1" /></g></svg>
<svg xmlns="http://www.w3.org/2000/svg" viewBox="0 0 1000 1000"><g id="Body-8"><rect x="161.21" y="452.66" width="687.79" height="552.16" style="fill:#ba3d11" /><rect x="309.41" y="451.15" width="382.27" height="553.67" style="fill:#542f5f" /><rect x="500.36" y="451.15" width="194.64" height="553.67" style="fill:#172027" /></g></svg>
<svg xmlns="http://www.w3.org/2000/svg" viewBox="0 0 1000 1000"><g id="head-5"><circle cx="500.93" cy="503.62" r="345.28" style="fill:#df2d2c" /><path d="M503.39,158.34c190.69,0,345.28,154.59,345.28,345.28S694.08,848.91,503.39,848.91" transform="translate(0.28)" style="fill:#c12e58" /></g></svg>
<svg xmlns="http://www.w3.org/2000/svg" viewBox="0 0 1000 1000"><g id="ears-5"><path d="M301.29,274.91l-6.63-25.77c-17-66.23-97.09-92.34-149.9-48.9l-105,86.42,152.65,37.18L265.15,264l20,24.27" transform="translate(0.28 0)" style="fill:#ba3d11" /><path d="M716.14,275.66l6.63-25.77c17-66.23,97.09-92.34,149.9-48.9l105.05,86.43L825.08,324.59l-72.8-59.89-20,24.27" transform="translate(0.28 0)" style="fill:#a31905" /></g></svg>
<svg xmlns="http://www.w3.org/2000/svg" viewBox="0 0 1000 1000"><g id="mouth-6"><rect x="317.45" y="553.94" width="214.26" height="100.83" style="fill:#fa8cb2" /><rect x="342.66" y="566.54" width="189.06" height="75.62" style="fill:#efe1da" /><rect x="367.87" y="566.54" width="12.6" height="75.62" style="fill:#001a1b" /><rect x="405.68" y="566.54" width="12.6" height="75.62" style="fill:#001a1b" /><rect x="443.52" y="566.5" width="12.6" height="75.62" style="fill:#001a1b" /><rect x="481.33" y="566.5" width="12.6" height="75.62" style="fill:#001a1b" /><rect x="501.72" y="549.98" width="195.45" height="100.83" transform="translate(1197.35 1204.78) rotate(-180)" style="fill:#f46461" /><rect x="495.41" y="562.58" width="176.56" height="75.62" transform="translate(1165.84 1204.78) rotate(-180)" style="fill:#efe1da" /><rect x="634.16" y="562.58" width="12.6" height="75.62" transform="translate(1279.37 1204.78) rotate(-180)" style="fill:#001a1b" /><rect x="596.35" y="562.58" width="12.6" height="75.62" transform="translate(1203.75 1204.78) rotate(-180)" style="fill:#001a1b" /><rect x="558.5" y="562.54" width="12.6" height="75.62" transform="translate(1128.06 1204.7) rotate(-180)" style="fill:#001a1b" /><rect x="520.69" y="562.54" width="12.6" height="75.62" transform="translate(1052.44 1204.7) rotate(-180)" style="fill:#001a1b" /><rect x="329.85" y="560.24" width="353.27" height="44.16" style="fill:#883a62;opacity:0.30000000000000004;mix-blend-mode:multiply" /></g></svg>
<svg xmlns="http://www.w3.org/2000/svg" viewBox="0 0 1000 1000"><g id="nose-1"><path d="M515.59,360.78h0A111.68,111.68,0,0,1,627.27,472.46V598.54a0,0,0,0,1,0,0H403.92a0,0,0,0,1,0,0V472.46A111.68,111.68,0,0,1,515.59,360.78Z" style="fill:#883a62;opacity:0.7000000000000001" /><path d="M458.09,527.5h59.68V427.43H476.51a24.44,24.44,0,0,0-23,16.17l-18.42,51.17A24.45,24.45,0,0,0,458.09,527.5Z" transform="translate(9.03 13)" style="fill:#fa8cb2" /><circle cx="479.97" cy="487.27" r="18.01" style="fill:#542f5f" /><path d="M551.83,527.9H506.16V427.83h27.25a24.45,24.45,0,0,1,23,16.17l18.42,51.17A24.45,24.45,0,0,1,551.83,527.9Z" transform="translate(9.03 13)" style="fill:#f46461" /><circle cx="548.01" cy="486.55" r="18.01" style="fill:#172027" /></g></svg>
<svg xmlns="http://www.w3.org/2000/svg" viewBox="0 0 1000 1000"><g id="hat-3"><rect x="362" y="88" width="144" height="135" style="fill:#542f5f" /><rect x="506" y="88" width="144" height="135" style="fill:#172027" /><rect x="254" y="214" width="513" height="18" style="fill:#172027" /></g></svg>
<svg xmlns="http://www.w3.org/2000/svg" viewBox="0 0 1000 1000"><g id="eyes-1"><circle cx="363.57" cy="441.83" r="93.68" style="fill:#001a1b" /><circle cx="363.57" cy="441.83" r="57.99" style="fill:#efe1da" /><circle cx="363.57" cy="441.83" r="40.15" style="fill:#ed7e29" /><polyline points="368.03 393.26 368.03 428.94 399.25 397.72" style="fill:#efe1da" /><circle cx="363.78" cy="441.68" r="67.07" style="fill:none;stroke:#883a62;stroke-miterlimit:10;stroke-width:4px" /><circle cx="648.94" cy="438.93" r="93.68" style="fill:#001a1b" /><circle cx="648.94" cy="438.93" r="57.99" style="fill:#efe1da" /><circle cx="648.94" cy="438.93" r="40.15" style="fill:#ed7e29" /><polyline points="653.4 390.36 653.4 426.04 684.63 394.82" style="fill:#efe1da" /><circle cx="649.15" cy="438.78" r="67.07" style="fill:none;stroke:#883a62;stroke-miterlimit:10;stroke-width:4px" /><path d="M553.7,432.32V380a89.59,89.59,0,0,1,89.59-89.59h16.86" transform="translate(0.28 0)" style="fill:none;stroke:#e9dedb;stroke-linecap:round;stroke-miterlimit:10;stroke-width:4px;mix-blend-mode:overlay" /><path d="M545.77,432V375.9a96,96,0,0,1,96-96h18.07" transform="translate(0.28 0)" style="fill:none;stroke:#e9dedb;stroke-linecap:round;stroke-miterlimit:10;stroke-width:4px;mix-blend-mode:overlay" /><path d="M528.38,432.45V368A110.38,110.38,0,0,1,638.76,257.57h20.78" transform="translate(0.28 0)" style="fill:none;stroke:#e9dedb;stroke-linecap:round;stroke-miterlimit:10;stroke-width:4px;mix-blend-mode:overlay" /><path d="M459.43,432.32V380a89.59,89.59,0,0,0-89.59-89.59H353" transform="translate(0.28 0)" style="fill:none;stroke:#e9dedb;stroke-linecap:round;stroke-miterlimit:10;stroke-width:4px;mix-blend-mode:overlay" /><path d="M467.36,432V375.9a96,96,0,0,0-96-96H353.32" transform="translate(0.28 0)" style="fill:none;stroke:#e9dedb;stroke-linecap:round;stroke-miterlimit:10;stroke-width:4px;mix-blend-mode:overlay" /><path d="M484.75,432.45V368A110.38,110.38,0,0,0,374.37,257.57H353.59" transform="translate(0.28 0)" style="fill:none;stroke:#e9dedb;stroke-linecap:round;stroke-miterlimit:10;stroke-width:4px;mix-blend-mode:overlay" /><polyline points="720.19 379.63 806.03 448.31 720.19 448.31" style="fill:#001a1b" /><polyline points="295.05 379.63 209.21 448.31 295.05 448.31" style="fill:#001a1b" /></g></svg>
</svg>