<svg id="bitcoin-face-for-forge0" width="100%" height="100%" viewBox="0 0 1025 1025" xmlns="http://www.w3.org/2000/svg" xmlns:xlink="http://www.w3.org/1999/xlink">
<svg xmlns="http://www.w3.org/2000/svg" viewBox="0 0 1000 1000"><g id="background-4"><rect id="Background-4" width="1025" height="1025" style="fill:#efe2db" /></g></svg>
<svg xmlns="http://www.w3.org/2000/svg" viewBox="0 0 1000 1000"><g id="Body-4"><path d="M504,494.22h0A412.66,412.66,0,0,1,916.61,906.88V1003a0,0,0,0,1,0,0H91.3a0,0,0,0,1,0,0V906.88A412.66,412.66,0,0,1,504,494.22Z" style="fill:#6c1908" /></g></svg>
<svg xmlns="http://www.w3.org/2000/svg" viewBox="0 0 1000 1000"><g id="head-7"><path d="M506.05,842.88H426.7l-328-506.19C60.51,277.78,102.79,200,173,200H506.05Z" transform="translate(-1.55 4)" style="fill:#ffa520" /><path d="M506,843h79.35l328-506.2c38.17-58.9-4.11-136.68-74.3-136.68H506Z" transform="translate(-1.55 4)" style="fill:#f96020" /></g></svg>
<svg xmlns="http://www.w3.org/2000/svg" viewBox="0 0 1000 1000"><g id="ears-1"><path d="M134.81,337.15H347a0,0,0,0,1,0,0v180a0,0,0,0,1,0,0H134.81a72,72,0,0,1-72-72v-36A72,72,0,0,1,134.81,337.15Z" style="fill:#df2d2c" /><path d="M803.72,337.15H951.54a0,0,0,0,1,0,0v180a0,0,0,0,1,0,0H803.72a72,72,0,0,1-72-72v-36A72,72,0,0,1,803.72,337.15Z" transform="translate(1683.54 854.3) rotate(180)" style="fill:#c12e58" /><rect x="107.81" y="373.15" width="63" height="108" rx="31.5" style="fill:#a02960" /><rect x="848.81" y="373.15" width="63" height="108" rx="31.5" style="fill:#4a2955;opacity:0.45" /></g></svg>
<svg xmlns="http://www.w3.org/2000/svg" viewBox="0 0 1000 1000"><g id="face-accessory-1"><circle cx="516.52" cy="942.46" r="62.02" style="fill:#f96020" /><circle cx="516.52" cy="942.46" r="54.28" style="fill:#d74816" /><rect x="487.05" y="879.79" width="35.52" height="96.79" transform="translate(214.46 1954.46) rotate(-135)" style="fill:#ffa520" /><circle cx="510.95" cy="942.07" r="66.36" style="fill:#f96020" /><circle cx="510.94" cy="942.07" r="58.08" style="fill:#d74816" /><g id="_04CbBX.tif" data-name="04CbBX.tif"><path d="M499.36,875.6h5.23a5.28,5.28,0,0,0,1.13.08c1.51.13,3,.28,4.52.52a52.15,52.15,0,0,1,10.43,2.72,53.73,53.73,0,0,1,32.17,33.55,52.41,52.41,0,0,1,2.21,10c.15,1.22.26,2.45.31,3.67a1.63,1.63,0,0,0,.08.82v4.31a1.52,1.52,0,0,0-.08.82,46.85,46.85,0,0,1-.52,5.14,52,52,0,0,1-5.39,16.51,53.57,53.57,0,0,1-43.89,28.75,50.62,50.62,0,0,1-8-.07,52.07,52.07,0,0,1-10.21-1.83,53.13,53.13,0,0,1-29.73-21.46,53,53,0,0,1-9.05-25.57,17,17,0,0,0-.16-1.88c0-.61,0-1.22,0-1.83,0-1.1,0-2.2,0-3.3a.77.77,0,0,0,.07-.4,53.09,53.09,0,0,1,5.25-20.37,53.67,53.67,0,0,1,35.15-28.6,54.71,54.71,0,0,1,9.34-1.48A8.57,8.57,0,0,0,499.36,875.6Zm-42,53.5a44.61,44.61,0,1,0,44.59-44.62A44.59,44.59,0,0,0,457.33,929.1Z" transform="translate(9.03 13)" style="fill:#ff9317" /><path d="M515.36,927.51a21.52,21.52,0,0,1,5.48,1.69,11.83,11.83,0,0,1,5.27,4.7,12,12,0,0,1,1.52,4.64,17.76,17.76,0,0,1-.27,6.21,10.87,10.87,0,0,1-6.8,8,25.21,25.21,0,0,1-5.77,1.53c-1.34.21-2.68.35-4,.44-.47,0-.47,0-.47.51v7.94c0,.5,0,.51-.51.51H504c-.56,0-.53,0-.53-.53v-7.68c0-.64.05-.57-.58-.57h-5.8c-.46,0-.46,0-.47.48v7.73c0,.59,0,.57-.54.57h-5.74c-.55,0-.55,0-.55-.57,0-2.51,0-5,0-7.53,0-.14,0-.27,0-.41s-.06-.29-.26-.27H476.43c-.24,0-.34-.06-.34-.31,0-1.9,0-3.79,0-5.69,0-.27.11-.35.36-.35,1.18,0,2.36,0,3.54,0a10.18,10.18,0,0,0,2.13-.27,1.92,1.92,0,0,0,1.55-1.57,11.89,11.89,0,0,0,.29-2.85V921.52c0-2.47,0-4.95,0-7.43a13.56,13.56,0,0,0-.27-2.69,2,2,0,0,0-1.71-1.68,13.39,13.39,0,0,0-2.75-.24h-2.66c-.47,0-.47,0-.47-.49,0-1.76,0-3.51,0-5.27,0-.6-.06-.56.54-.57h12.55c.57,0,.57,0,.58-.54v-7.89c0-.2.09-.28.28-.26h6c.61,0,.56-.06.56.54,0,2.51,0,5,0,7.53,0,.7-.05.62.64.62H503c.46,0,.46,0,.47-.49v-7.94c0-.2.07-.28.27-.26h6c.59,0,.57-.09.57.58v7.84c0,.39,0,.39.39.42a32.44,32.44,0,0,1,6.11,1,17.64,17.64,0,0,1,3.2,1.2,9.17,9.17,0,0,1,5,6.06,14.22,14.22,0,0,1,.12,7.24,10.31,10.31,0,0,1-4.17,6,18.31,18.31,0,0,1-5.34,2.53C515.55,927.36,515.43,927.34,515.36,927.51Zm-18.76,12.4c0,2.77,0,5.53,0,8.3,0,.44,0,.45.44.45h3a44,44,0,0,0,6.39-.31,15,15,0,0,0,3.66-.93,6.31,6.31,0,0,0,3.8-4.16,12,12,0,0,0,.26-6,6.32,6.32,0,0,0-2.8-4.24A9.11,9.11,0,0,0,508.7,932a23.93,23.93,0,0,0-4.61-.65c-2.39-.14-4.78,0-7.17-.08-.26,0-.34.1-.32.33s0,.24,0,.36Zm0-22.76v4.25c0,1.05,0,2.09,0,3.13,0,.25,0,.37.34.37a68.58,68.58,0,0,0,7.72-.23,14.47,14.47,0,0,0,3.67-.89,5.57,5.57,0,0,0,3.45-4A11.75,11.75,0,0,0,512,915a5.49,5.49,0,0,0-3.83-4.58,18.25,18.25,0,0,0-5-.88c-2-.1-4,0-6,0h-.21c-.17,0-.25.08-.24.25s0,.27,0,.41Z" transform="translate(9.03 13)" style="fill:#ff9317" /></g><circle cx="459.8" cy="882.7" r="13.97" style="fill:#ff9317" /><circle cx="438.84" cy="861.74" r="13.97" style="fill:#ff9317" /><circle cx="417.89" cy="840.79" r="13.97" style="fill:#ff9317" /><circle cx="396.93" cy="819.83" r="13.97" style="fill:#ff9317" /><circle cx="564.57" cy="882.7" r="13.97" style="fill:#f96020" /><circle cx="585.53" cy="861.74" r="13.97" style="fill:#f96020" /><circle cx="606.48" cy="840.79" r="13.97" style="fill:#f96020" /><circle cx="627.44" cy="819.83" r="13.97" style="fill:#f96020" /></g></svg>
<svg xmlns="http://www.w3.org/2000/svg" viewBox="0 0 1000 1000"><g id="mouth-6"><rect x="317.45" y="553.94" width="214.26" height="100.83" style="fill:#fa8cb2" /><rect x="342.66" y="566.54" width="189.06" height="75.62" style="fill:#efe1da" /><rect x="367.87" y="566.54" width="12.6" height="75.62" style="fill:#001a1b" /><rect x="405.68" y="566.54" width="12.6" height="75.62" style="fill:#001a1b" /><rect x="443.52" y="566.5" width="12.6" height="75.62" style="fill:#001a1b" /><rect x="481.33" y="566.5" width="12.6" height="75.62" style="fill:#001a1b" /><rect x="501.72" y="549.98" width="195.45" height="100.83" transform="translate(1197.35 1204.78) rotate(-180)" style="fill:#f46461" /><rect x="495.41" y="562.58" width="176.56" height="75.62" transform="translate(1165.84 1204.78) rotate(-180)" style="fill:#efe1da" /><rect x="634.16" y="562.58" width="12.6" height="75.62" transform="translate(1279.37 1204.78) rotate(-180)" style="fill:#001a1b" /><rect x="596.35" y="562.58" width="12.6" height="75.62" transform="translate(1203.75 1204.78) rotate(-180)" style="fill:#001a1b" /><rect x="558.5" y="562.54" width="12.6" height="75.62" transform="translate(1128.06 1204.7) rotate(-180)" style="fill:#001a1b" /><rect x="520.69" y="562.54" width="12.6" height="75.62" transform="translate(1052.44 1204.7) rotate(-180)" style="fill:#001a1b" /><rect x="329.85" y="560.24" width="353.27" height="44.16" style="fill:#883a62;opacity:0.30000000000000004;mix-blend-mode:multiply" /></g></svg>
<svg xmlns="http://www.w3.org/2000/svg" viewBox="0 0 1000 1000"><g id="nose-4"><path d="M504.85,534.76l-99.51-59.7h0a108,108,0,0,1,95.7,7.67l3.81,2.28" transform="translate(-1.55 4)" style="fill:#4a3022" /><path d="M505.3,534.65l99.51-59.71h0a108,108,0,0,0-95.71,7.67l-3.8,2.28" transform="translate(-1.55 4)" style="fill:#021213" /></g></svg>
<svg xmlns="http://www.w3.org/2000/svg" viewBox="0 0 1000 1000"><g id="hat-5"><path d="M704.39,126H507.13l12.77,10.22A138.53,138.53,0,0,0,704.39,126Z" transform="translate(0.28)" style="fill:#ffa520" /><path d="M703.55,126H506.29l12.77-10.22A138.53,138.53,0,0,1,703.55,126Z" transform="translate(0.28)" style="fill:#b98d22" /></g></svg>
<svg xmlns="http://www.w3.org/2000/svg" viewBox="0 0 1000 1000"><g id="eyes-8"><circle cx="348.4" cy="415.43" r="75.59" style="fill:#fff8da" /><circle cx="667.54" cy="415.43" r="75.59" style="fill:#aba2ca" /><circle cx="348.4" cy="415.43" r="41.99" style="fill:#2c1f41" /><circle cx="667.54" cy="415.43" r="41.99" style="fill:#172027" /></g></svg>
</svg>