<svg id="bitcoin-face-for-loom0" width="100%" height="100%" viewBox="0 0 1025 1025" xmlns="http://www.w3.org/2000/svg" xmlns:xlink="http://www.w3.org/1999/xlink">
<svg xmlns="http://www.w3.org/2000/svg" viewBox="0 0 1000 1000"><g id="background-1"><rect id="Background-1" width="1025" height="1025" style="fill:#3a6a7e" /></g></svg>
<svg xmlns="http://www.w3.org/2000/svg" viewBox="0 0 1000 1000"><g id="Body-3"><polygon points="964.21 1008.46 48.77 1008.46 121.96 256.43 890.62 256.43 964.21 1008.46" style="fill:#af3271" /></g></svg>
<svg xmlns="http://www.w3.org/2000/svg" viewBox="0 0 1000 1000"><g id="head-1"><polygon points="502.26 121.83 502.26 949.11 155.96 689.38 155.96 314.22 502.26 121.83" style="fill:#f96020" /><polygon points="502.7 121.72 502.7 948.99 849 689.27 849 314.11 502.7 121.72" style="fill:#df4624" /></g></svg>
<svg xmlns="http://www.w3.org/2000/svg" viewBox="0 0 1000 1000"><g id="ears-6"><path d="M305.64,230v64A22.69,22.69,0,0,1,283,316.61H262.15a97.69,97.69,0,0,0-37.57,7.51h0a87.1,87.1,0,0,1-112.14-43L108,271.88a86.58,86.58,0,0,1,44.06-116.81h0A86.61,86.61,0,0,1,208.5,151l89.26,23.81H187.46a39.39,39.39,0,0,0-39.39,39.39h0a39.4,39.4,0,0,0,39.39,39.39h4.85A39.42,39.42,0,0,0,212.58,248l40.76-24.46a42.8,42.8,0,0,1,52.3,6.44Z" transform="translate(0.34)" style="fill:#542f5f" /><path d="M722.64,230.16v64a22.68,22.68,0,0,0,22.68,22.68h20.81a97.64,97.64,0,0,1,37.56,7.51h0a87.11,87.11,0,0,0,112.15-42.95l4.42-9.29a86.58,86.58,0,0,0-44.07-116.81h0a86.58,86.58,0,0,0-56.41-4.07L730.51,175h110.3A39.39,39.39,0,0,1,880.2,214.4h0a39.38,39.38,0,0,1-39.39,39.39H836a39.42,39.42,0,0,1-20.27-5.61l-40.77-24.46a42.8,42.8,0,0,0-52.29,6.44Z" transform="translate(0.34)" style="fill:#111c0d" /></g></svg>
<svg xmlns="http://www.w3.org/2000/svg" viewBox="0 0 1000 1000"><g id="mouth-2"><path d="M319.44,644.51h0a298.58,298.58,0,0,0,171.25,54h13.83v-54" transform="translate(0.28 0)" style="fill:#ba3d11" /><path d="M690.74,644.23h0a298.61,298.61,0,0,1-171.26,54H505.65v-54" transform="translate(0.28 0)" style="fill:#a31905" /><polygon points="504.8 613.66 481.66 590.53 312 644.51 504.8 644.51 504.8 613.66" style="fill:#6c1908" /><polygon points="505.93 613.38 529.07 590.25 698.73 644.23 505.93 644.23 505.93 613.38" style="fill:#3e1b11" /></g></svg>
<svg xmlns="http://www.w3.org/2000/svg" viewBox="0 0 1000 1000"><g id="nose-2"><circle cx="478.44" cy="516.44" r="9.88" style="fill:#303636" /><path d="M503,519.73h-3.65a24.52,24.52,0,0,0-49,0H446.7a28.17,28.17,0,0,1,56.34,0Z" transform="translate(0.28 0)" style="fill:#efe1da" /><circle cx="535.24" cy="515.88" r="9.88" style="fill:#303636" /><path d="M510.08,519.17h3.66a24.52,24.52,0,0,1,49,0h3.66a28.18,28.18,0,0,0-56.35,0Z" transform="translate(0.28 0)" style="fill:#efe1da" /></g></svg>
<svg xmlns="http://www.w3.org/2000/svg" viewBox="0 0 1000 1000"><g id="hat-2"><path d="M663.88,240.76l74.57-93.92v29.34c0,20.79-16.5,40.2-44,51.73Z" transform="translate(0.28 0)" style="fill:#df4624" /><path d="M361.53,239.64,287,145.73v29.34c0,20.78,16.49,40.19,44,51.72Z" transform="translate(0.28 0)" style="fill:#f96020" /><path d="M487.19,192.18V67l-8.8,5.54c-50.05,31.52-50.05,82.62,0,114.14Z" transform="translate(0.28 0)" style="fill:#ba3272" /><polyline points="487.47 192.18 388.05 113.92 388.05 160.88 487.47 239.14" style="fill:#8e97c4" /><path d="M387.77,160.88V20L357.93,57.58c-29.41,37.05-44.72,77.9-44.72,119.32v46.59H472.57" transform="translate(0.28 0)" style="fill:#ba3272" /><path d="M538.22,193.3V68.07L547,73.62c50,31.51,50,82.62,0,114.13Z" transform="translate(0.28 0)" style="fill:#532d5a" /><polyline points="538.5 193.3 637.92 115.03 637.92 161.99 538.5 240.25" style="fill:#4f4f8e" /><path d="M637.65,162V21.12L667.48,58.7c29.42,37,44.73,77.9,44.73,119.32V224.6H554.37" transform="translate(0.28 0)" style="fill:#532d5a" /><path d="M487.19,192.18,412.63,98.26v29.35c0,20.78,16.49,40.19,43.95,51.72Z" transform="translate(0.28 0)" style="fill:#f96020" /><path d="M538.22,193.3l74.57-93.92v29.34c0,20.79-16.49,40.2-44,51.72Z" transform="translate(0.28 0)" style="fill:#df4624" /><circle cx="513.65" cy="190.25" r="54.63" style="fill:#f96020" /><circle cx="513.64" cy="190.25" r="47.82" style="fill:#d74816" /></g></svg>
<svg xmlns="http://www.w3.org/2000/svg" viewBox="0 0 1000 1000"><defs><linearGradient id="laser-eyes-1-gradient" x1="50%" y1="0%" x2="50%" y2="100%"><stop offset="0%" style="stop-color:#A9D3EB; stop-opacity:1" /><stop offset="100%" style="stop-color:#A9D3EB; stop-opacity:0.8" /></linearGradient><linearGradient id="starburst-updown-gradient" x1="50%" y1="0%" x2="50%" y2="100%"><stop offset="0%" style="stop-color:#FFFFFF; stop-opacity:0" /><stop offset="35%" style="stop-color:#FFFFFF; stop-opacity:1" /><stop offset="65%" style="stop-color:#FFFFFF; stop-opacity:1" /><stop offset="100%" style="stop-color:#FFFFFF; stop-opacity:0" /></linearGradient><linearGradient id="starburst-updown-gradient-accent" x1="50%" y1="0%" x2="50%" y2="100%"><stop offset="0%" style="stop-color:#A9D3EB; stop-opacity:0" /><stop offset="50%" style="stop-color:#A9D3EB; stop-opacity:0.5" /><stop offset="65%" style="stop-color:#A9D3EB; stop-opacity:0.5" /><stop offset="100%" style="stop-color:#A9D3EB; stop-opacity:0" /></linearGradient><linearGradient id="starburst-leftright-gradient" x1="0%" y1="50%" x2="100%" y2="50%"><stop offset="0%" style="stop-color:#FFFFFF; stop-opacity:0" /><stop offset="50%" style="stop-color:#FFFFFF; stop-opacity:1" /><stop offset="100%" style="stop-color:#FFFFFF; stop-opacity:0" /></linearGradient><linearGradient id="starburst-leftright-gradient-accent" x1="0%" y1="50%" x2="100%" y2="50%"><stop offset="0%" style="stop-color:#A9D3EB; stop-opacity:0" /><stop offset="50%" style="stop-color:#A9D3EB; stop-opacity:0.5" /><stop offset="100%" style="stop-color:#A9D3EB; stop-opacity:0" /></linearGradient></defs><g id="eyes-7"><path d="M442.45,470.19H403.52A79.15,79.15,0,0,1,324.37,391V276.19l143.39-75.91v135A33.75,33.75,0,0,1,434,369h0l8.43,8.43a59.63,59.63,0,0,1,0,84.35h0" transform="translate(0.34)" style="fill:#883a62" /><path d="M408.59,452.85h33.74a0,0,0,0,1,0,0v33.74a16.87,16.87,0,0,1-16.87,16.87h0a16.87,16.87,0,0,1-16.87-16.87V452.85A0,0,0,0,1,408.59,452.85Z" style="fill:#4d2f47" /><path d="M315.93,385.84h48.74a77.78,77.78,0,0,1,77.78,77.79v23.42H434V453.32H400.75a59,59,0,0,1-59-59.05H324.37Z" transform="translate(0.34)" style="fill:#fae7db" /><circle cx="388.91" cy="415.36" r="29.99" style="fill:#A9D3EB" /><circle cx="388.91" cy="415.36" r="12.18" style="fill:#A9D3EB" /><path d="M577.3,469.78h38.94a79.14,79.14,0,0,0,79.14-79.14V275.79L552,199.87v135a33.75,33.75,0,0,0,33.74,33.74h0L577.3,377a59.65,59.65,0,0,0,0,84.35h0" transform="translate(0.34)" style="fill:#4d2f47" /><path d="M594.63,452.44h0a16.87,16.87,0,0,1,16.87,16.87v33.74a0,0,0,0,1,0,0H577.77a0,0,0,0,1,0,0V469.31A16.87,16.87,0,0,1,594.63,452.44Z" transform="translate(1189.61 955.5) rotate(180)" style="fill:#4d2f47" /><path d="M703.82,385.44H655.09a77.78,77.78,0,0,0-77.79,77.78v23.43h8.43V452.91H619a59,59,0,0,0,59-59h17.34Z" transform="translate(0.34)" style="fill:#f9c1c0" /><circle cx="631.53" cy="414.96" r="29.99" style="fill:#A9D3EB" /><circle cx="631.53" cy="414.96" r="12.18" style="fill:#A9D3EB" /><path d="M447.34,460h-6.51a74.62,74.62,0,0,0-74.53-74.53H297.45v-6.51H366.3A81.13,81.13,0,0,1,447.34,460Z" transform="translate(0.34)" style="fill:#361a11" /><path d="M570.62,460.87h6.51a74.62,74.62,0,0,1,74.53-74.53h68.85v-6.51H651.66A81.14,81.14,0,0,0,570.62,460.87Z" transform="translate(0.34)" style="fill:#361a11" /><path d="M366.52,496.7v-6.51A74.62,74.62,0,0,1,292,415.65V346.81h-6.51v68.84A81.13,81.13,0,0,0,366.52,496.7Z" transform="translate(0.34)" style="fill:#727fbd" /><path d="M341.16,504.3V500a49.84,49.84,0,0,1-49.79-49.79v-46H287v46A54.2,54.2,0,0,0,341.16,504.3Z" transform="translate(0.34)" style="fill:#727fbd" /><g style="opacity:0.56;mix-blend-mode:overlay"><path d="M660.22,496.15v-6.52a74.61,74.61,0,0,0,74.53-74.53V346.26h6.51V415.1A81.13,81.13,0,0,1,660.22,496.15Z" transform="translate(0.34)" style="fill:#4d2f47" /></g><g style="opacity:0.56;mix-blend-mode:overlay"><path d="M685.58,503.75V499.4a49.85,49.85,0,0,0,49.79-49.79v-2.08l4.35-18v20.08A54.2,54.2,0,0,1,685.58,503.75Z" transform="translate(0.34)" style="fill:#4d2f47" /></g></g><g id="laser-eyes-1"><rect width="100" height="3000" transform="translate(377 412) scale(0.24) rotate(30 0 0)" fill="url(#laser-eyes-1-gradient)" style="mix-blend-mode:hard-light" /><rect width="100" height="3000" transform="translate(623 424) scale(0.24) rotate(-30 0 0)" fill="url(#laser-eyes-1-gradient)" style="mix-blend-mode:hard-light" /></g><g id="laser-eyes-starburst"><g id="eye-covers"><circle cx="377.8" cy="420.83" r="24" style="fill:#FFBD6B;mix-blend-mode:overlay" /><circle cx="637.34" cy="420.69" r="24" style="fill:#FFBD6B;mix-blend-mode:overlay" /></g><g id="up-down"><rect width="150" height="2439" transform="translate(359 180) scale(0.24)" fill="url(#starburst-updown-gradient)" style="mix-blend-mode:hard-light" /><rect width="150" height="2439" transform="translate(620 180) scale(0.24)" fill="url(#starburst-updown-gradient)" style="mix-blend-mode:hard-light" /></g><g id="left-right"><rect width="2000" height="150" transform="translate(110 405) scale(0.24)" fill="url(#starburst-leftright-gradient)" style="mix-blend-mode:hard-light" /><rect width="2000" height="150" transform="translate(400 405) scale(0.24)" fill="url(#starburst-leftright-gradient)" style="mix-blend-mode:hard-light" /></g><g id="up-down-accent"><rect width="50" height="3500" transform="translate(371 60) scale(0.24)" fill="url(#starburst-updown-gradient-accent)" style="mix-blend-mode:hard-light" /><rect width="50" height="3500" transform="translate(632 60) scale(0.24)" fill="url(#starburst-updown-gradient-accent)" style="mix-blend-mode:hard-light" /></g><g id="left-right-accent"><rect width="3500" height="50" transform="translate(80 415) scale(0.24)" fill="url(#starburst-leftright-gradient-accent)" style="mix-blend-mode:hard-light" /></g></g></svg>
</svg>